# xmcd
#
# Track frame offsets: 
#        150
#        39180
#        63597
#        80073
#        153094
#        169858
#        207654
#        232060
#        253801
#
# Disc length: 3589 seconds
#
# Revision: 0
# Processed by: cddbd v1.5.2PL0 Copyright (c) Steve Scherf et al.
# Submitted via: ExactAudioCopy v0.95b3
#
DISCID=7a0e0309
DTITLE=Jimi Hendrix  - Nothing but Primary Rhythm Things  ATM 240 - Di
DTITLE=sc 2
DYEAR=1900
DGENRE=
TTITLE0=Izabella
TTITLE1=Gypsy Woman
TTITLE2=Fire
TTITLE3=Voodoo Child (SR)
TTITLE4=Star Spangled Banner
TTITLE5=Purple Haze+Improvisation
TTITLE6=Villanova Junction
TTITLE7=Hey Joe
TTITLE8=Outro
EXTD=
EXTT0=
EXTT1=
EXTT2=
EXTT3=
EXTT4=
EXTT5=
EXTT6=
EXTT7=
EXTT8=
PLAYORDER=
